<?xml version="1.0" encoding="utf-8"?>
<svg viewBox="0 0 35.87 38.084" xmlns="http://www.w3.org/2000/svg">
  <path fill="#292F33" d="M 35 29.499 C 35 32.014 33.209 34.053 31 34.053 L 5 34.053 C 2.791 34.053 1 32.014 1 29.499 L 1 7.086 C 1 4.571 6.791 -0.101 9 -0.101 L 29.625 -0.101 C 32.719 -0.101 35 2.53 35 6.018 L 35 29.499 Z" style=""/>
  <path fill="#CCD6DD" d="M 33 32.106 C 33 34.481 31.209 36.407 29 36.407 L 7 36.407 C 4.791 36.407 3 34.481 3 32.106 L 3 6.301 C 3 1.872 2.979 2 8 2 L 29 2 C 31.209 2 33 3.926 33 6.301 L 33 32.106 Z" style=""/>
  <path fill="#E1E8ED" d="M 31 31 C 31 32.657 29.688 34 28.069 34 L 4.621 34 C 3.002 34 1.69 32.657 1.69 31 L 1.69 7 C 1.69 5.343 3.002 4 4.621 4 L 28.069 4 C 29.688 4 31 5.343 31 7 L 31 31 Z" style="stroke-width: 0px; stroke: rgb(255, 255, 255);"/>
  <path fill="#292F33" d="M 31 33.757 C 31 36.115 29.217 38.026 27.017 38.026 L 6.109 38.026 C 3.91 38.026 2.127 36.115 2.127 33.757 L 2.127 10.27 C 2.127 7.912 3.91 6 6.109 6 L 27.017 6 C 29.217 6 31 7.912 31 10.27 L 31 33.757 Z" style=""/>
  <path d="M29 32c0 2.209-1.791 4-4 4H6c-2.209 0-4-1.791-4-4V12c0-2.209 1.791-4 4-4h19.335C27.544 8 29 9.456 29 11.665V32z" style="fill: rgba(102, 117, 127, 0.27);"/>
  <path fill="#292F33" d="M 6 6.24 C 4.312 6.24 4.269 4.205 5 3.33 C 5.832 2.333 7.125 2.006 9.438 2.006 L 11 2.006 L 11 -0.111 L 8.281 -0.111 C 4.312 -0.111 1 2.536 1 5.58 L 1 33.765 C 1 36.103 2.791 37.999 5 37.999 L 7 37.999 L 7 6.24 L 6 6.24 Z" style=""/>
  <path d="M7 8h3v4H7zm7 0h4v4h-4zm12 .056c-.214-.031-.433-.056-.665-.056H22v4h4V8.056zM18 12h4v4h-4zm8 0h3v4h-3zm-16 0h4v4h-4zm-3 4h3v4H7zm7 0h4v4h-4zm8 0h4v4h-4zm-4 4h4v4h-4zm8 0h3v4h-3zm-16 0h4v4h-4zm-3 4h3v4H7zm7 0h4v4h-4zm8 0h4v4h-4zM7 32h3v4H7zm7 0h4v4h-4zm8 4h3c.347 0 .679-.058 1-.141V32h-4v4zm-4-8h4v4h-4zm8 0h3v4h-3zm-16 0h4v4h-4z" style="fill: rgb(255, 255, 255);"/>
</svg>