<?xml version="1.0" standalone="no"?>
<!DOCTYPE svg PUBLIC "-//W3C//DTD SVG 20010904//EN"
 "http://www.w3.org/TR/2001/REC-SVG-20010904/DTD/svg10.dtd">
<svg version="1.0" xmlns="http://www.w3.org/2000/svg"
 width="608.000000pt" height="608.000000pt" viewBox="0 0 608.000000 608.000000"
 preserveAspectRatio="xMidYMid meet">
<metadata>
Created by potrace 1.11, written by Peter Selinger 2001-2013
</metadata>
<g transform="translate(0.000000,608.000000) scale(0.100000,-0.100000)"
fill="#000000" stroke="none">
<path d="M1215 6069 c-16 -5 -46 -12 -65 -15 -19 -3 -39 -9 -45 -13 -5 -4 -38
-16 -73 -26 -35 -10 -65 -22 -68 -27 -3 -4 -14 -8 -25 -8 -10 0 -19 -4 -19
-10 0 -5 -7 -10 -14 -10 -17 0 -138 -68 -148 -84 -4 -6 -8 -8 -8 -3 0 4 -8 -1
-18 -10 -11 -10 -32 -27 -48 -38 -73 -50 -244 -247 -244 -280 0 -7 -4 -15 -8
-17 -11 -4 -58 -121 -73 -177 -6 -25 -13 -76 -15 -115 -7 -100 -6 -4514 1
-4609 20 -292 246 -552 526 -604 50 -9 3711 -11 3749 -1 142 34 255 106 360
227 17 19 30 38 30 43 0 4 34 24 75 44 53 26 98 58 148 108 85 83 103 107 148
202 26 54 44 78 79 102 61 43 110 89 145 137 17 22 32 42 35 45 9 9 30 44 40
68 5 12 18 41 29 65 17 37 27 70 50 157 9 37 7 4037 -2 4090 -68 374 -282 643
-591 744 l-79 26 -1921 -1 c-1141 0 -1933 -5 -1951 -10z"/>
</g>
</svg>
